<?xml version="1.0" standalone="no"?>
<!DOCTYPE svg PUBLIC "-//W3C//DTD SVG 20010904//EN"
 "http://www.w3.org/TR/2001/REC-SVG-20010904/DTD/svg10.dtd">
<svg version="1.0" xmlns="http://www.w3.org/2000/svg"
 width="512.000000pt" height="512.000000pt" viewBox="0 0 512.000000 512.000000"
 preserveAspectRatio="xMidYMid meet">
<metadata>
Created by potrace 1.14, written by Peter Selinger 2001-2017
</metadata>
<g transform="translate(0.000000,512.000000) scale(0.100000,-0.100000)"
fill="#000000" stroke="none">
<path d="M1684 4946 c-54 -24 -78 -70 -133 -261 -29 -99 -63 -216 -76 -260
-14 -44 -65 -219 -115 -390 -51 -170 -103 -348 -117 -395 -13 -47 -40 -137
-58 -200 -18 -63 -67 -230 -109 -370 -41 -140 -122 -417 -180 -614 -58 -198
-106 -370 -106 -383 0 -37 36 -99 72 -125 l33 -23 584 -3 583 -2 -7 -88 c-3
-48 -8 -103 -10 -122 -4 -41 -13 -134 -20 -222 -3 -35 -8 -74 -10 -88 -2 -14
-7 -65 -10 -115 -3 -49 -8 -101 -10 -115 -3 -24 -7 -66 -21 -225 -3 -38 -7
-84 -9 -100 -2 -17 -6 -68 -10 -115 -3 -47 -8 -94 -10 -105 -7 -38 -19 -210
-20 -287 0 -62 4 -82 21 -104 32 -44 66 -64 115 -70 69 -9 106 12 189 107 40
46 87 100 104 119 18 19 88 100 156 180 68 80 127 147 130 150 3 3 32 36 65
75 57 66 81 94 122 141 10 11 41 47 69 80 29 32 98 113 155 179 57 66 108 125
114 131 5 6 21 24 35 40 14 16 54 63 90 104 36 41 76 88 90 104 14 16 32 37
40 46 8 8 40 45 70 80 68 80 110 129 130 149 8 9 25 30 38 46 13 17 40 48 60
70 20 22 77 87 127 145 78 91 120 140 160 184 6 6 50 58 99 116 50 58 95 110
101 115 39 36 105 131 110 159 14 70 -9 126 -69 170 -27 21 -41 21 -651 26
l-624 5 14 30 c8 17 44 92 80 168 36 77 65 140 65 142 0 2 22 50 48 107 69
146 148 315 204 438 17 36 46 99 65 140 38 80 75 162 78 170 1 3 18 40 38 83
21 42 53 112 74 155 20 42 37 79 38 82 0 3 16 37 34 75 95 200 131 290 131
322 0 49 -26 99 -68 131 l-35 27 -1011 2 c-837 2 -1016 0 -1042 -11z"/>
</g>
</svg>
